<?xml version="1.0" encoding="UTF-8" standalone="no"?>
<!-- Created with Inkscape (http://www.inkscape.org/) -->

<svg
   width="210mm"
   height="297mm"
   viewBox="0 0 210 297"
   version="1.1"
   id="svg1"
   inkscape:version="1.3.2 (091e20e, 2023-11-25)"
   sodipodi:docname="handmade.svg"
   xmlns:inkscape="http://www.inkscape.org/namespaces/inkscape"
   xmlns:sodipodi="http://sodipodi.sourceforge.net/DTD/sodipodi-0.dtd"
   xmlns="http://www.w3.org/2000/svg"
   xmlns:svg="http://www.w3.org/2000/svg">
  <sodipodi:namedview
     id="namedview1"
     pagecolor="#ffffff"
     bordercolor="#111111"
     borderopacity="1"
     inkscape:showpageshadow="0"
     inkscape:pageopacity="0"
     inkscape:pagecheckerboard="1"
     inkscape:deskcolor="#d1d1d1"
     inkscape:document-units="mm"
     inkscape:zoom="0.2102413"
     inkscape:cx="397.16269"
     inkscape:cy="558.88162"
     inkscape:window-width="1472"
     inkscape:window-height="806"
     inkscape:window-x="0"
     inkscape:window-y="37"
     inkscape:window-maximized="1"
     inkscape:current-layer="layer1" />
  <defs
     id="defs1">
    <rect
       x="61.833711"
       y="932.26211"
       width="703.95302"
       height="118.91098"
       id="rect29" />
    <rect
       x="76.103029"
       y="946.53143"
       width="532.72121"
       height="104.64167"
       id="rect28" />
    <inkscape:perspective
       sodipodi:type="inkscape:persp3d"
       inkscape:vp_x="-23.375755 : 94.900178 : 1"
       inkscape:vp_y="0 : 852.22419 : 0"
       inkscape:vp_z="282.37099 : 94.900178 : 1"
       inkscape:persp3d-origin="129.49762 : 52.715081 : 1"
       id="perspective17" />
  </defs>
  <g
     inkscape:label="Layer 1"
     inkscape:groupmode="layer"
     id="layer1">
    <rect
       style="fill:#ff00ff;stroke-width:0.264583"
       id="rect17"
       width="163.60168"
       height="33.978813"
       x="16.360168"
       y="200.09746" />
    <g
       sodipodi:type="inkscape:box3d"
       id="g17"
       style="fill:#d35f5f"
       inkscape:perspectiveID="#perspective17"
       inkscape:corner0="2.9730641 : 0.25450003 : 0 : 1"
       inkscape:corner7="-0.12174373 : 0.045078951 : 0.25 : 1">
      <path
         sodipodi:type="inkscape:box3dside"
         id="path22"
         style="fill:#d35f5f;fill-rule:evenodd;stroke:none;stroke-linejoin:round"
         inkscape:box3dsidetype="11"
         d="M 30.923696,160.73034 179.86714,47.253816 V 205.43925 L 30.923696,202.992 Z"
         points="179.86714,47.253816 179.86714,205.43925 30.923696,202.992 30.923696,160.73034 " />
      <path
         sodipodi:type="inkscape:box3dside"
         id="path17"
         style="fill:#d35f5f;fill-rule:evenodd;stroke:none;stroke-width:0.92316;stroke-linejoin:round"
         inkscape:box3dsidetype="6"
         d="m 15.101695,158.12722 v 44.92092 l 15.822001,-0.0561 v -42.26166 z"
         points="15.101695,203.04814 30.923696,202.992 30.923696,160.73034 15.101695,158.12722 " />
      <path
         sodipodi:type="inkscape:box3dside"
         id="path21"
         style="fill:#d35f5f;fill-rule:evenodd;stroke:none;stroke-width:0.92316;stroke-linejoin:round"
         inkscape:box3dsidetype="13"
         d="M 15.101695,203.04814 150.6889,206.38983 179.86714,205.43925 30.923696,202.992 Z"
         points="150.6889,206.38983 179.86714,205.43925 30.923696,202.992 15.101695,203.04814 " />
      <path
         sodipodi:type="inkscape:box3dside"
         id="path18"
         style="fill:#d35f5f;fill-rule:evenodd;stroke:none;stroke-linejoin:round"
         inkscape:box3dsidetype="5"
         d="M 15.101695,158.12722 150.6889,3.1761317 179.86714,47.253816 30.923696,160.73034 Z"
         points="150.6889,3.1761317 179.86714,47.253816 30.923696,160.73034 15.101695,158.12722 " />
      <path
         sodipodi:type="inkscape:box3dside"
         id="path20"
         style="fill:#d35f5f;fill-rule:evenodd;stroke:none;stroke-linejoin:round"
         inkscape:box3dsidetype="14"
         d="M 150.6889,3.1761317 V 206.38983 l 29.17824,-0.95058 V 47.253816 Z"
         points="150.6889,206.38983 179.86714,205.43925 179.86714,47.253816 150.6889,3.1761317 " />
      <path
         sodipodi:type="inkscape:box3dside"
         id="path19"
         style="fill:#d35f5f;fill-rule:evenodd;stroke:none;stroke-linejoin:round"
         inkscape:box3dsidetype="3"
         d="M 15.101695,158.12722 150.6889,3.1761317 V 206.38983 L 15.101695,203.04814 Z"
         points="150.6889,3.1761317 150.6889,206.38983 15.101695,203.04814 15.101695,158.12722 " />
    </g>
    <text
       xml:space="preserve"
       transform="scale(0.26458333)"
       id="text28"
       style="fill:#ff00ff;white-space:pre;shape-inside:url(#rect28)" />
    <text
       xml:space="preserve"
       transform="scale(0.26458333)"
       id="text29"
       style="font-style:normal;font-variant:normal;font-weight:bold;font-stretch:normal;font-size:64.00000081px;font-family:Arial;-inkscape-font-specification:'Arial Bold';white-space:pre;shape-inside:url(#rect29);fill:#ff00ff;text-align:center;word-spacing:0.01px;letter-spacing:0.01px"
       x="257.41211"
       y="0"><tspan
         x="63.976797"
         y="989.91"
         id="tspan2"><tspan
           dx="0 0 0 0 0 0 0 -0.0099902339 0.0099890139 0 -0.010020752 0.010019531 0 -0.010020752 0.010019531"
           id="tspan1">Welcome to My Project</tspan></tspan></text>
    <path
       sodipodi:type="star"
       style="fill:#ff00ff;stroke-width:0.264583"
       id="path29"
       inkscape:flatsided="false"
       sodipodi:sides="5"
       sodipodi:cx="18.877117"
       sodipodi:cy="37.754234"
       sodipodi:r1="29.620975"
       sodipodi:r2="14.810487"
       sodipodi:arg1="0.21406068"
       sodipodi:arg2="0.84237921"
       inkscape:rounded="0"
       inkscape:randomized="0"
       d="M 47.822034,44.046607 28.736299,48.80625 21.837186,67.226937 11.412681,50.546134 -8.2383769,49.676993 4.4046595,34.608048 -0.84124856,15.650202 17.397083,23.017884 33.805991,12.170432 32.434863,31.792855 Z"
       inkscape:transform-center-x="-0.91471122"
       inkscape:transform-center-y="1.9444497"
       transform="translate(28.944915,13.84322)" />
    <path
       sodipodi:type="star"
       style="fill:#ff00ff;stroke-width:0.264583"
       id="path30"
       inkscape:flatsided="false"
       sodipodi:sides="5"
       sodipodi:cx="168.63559"
       sodipodi:cy="273.08899"
       sodipodi:r1="11.256139"
       sodipodi:r2="5.6280689"
       sodipodi:arg1="0.46364761"
       sodipodi:arg2="1.0919661"
       inkscape:rounded="0"
       inkscape:randomized="0"
       d="m 178.70339,278.12289 -7.47472,-0.0388 -4.26948,6.1355 -2.27292,-7.12086 -7.15455,-2.16455 6.06997,-4.36214 -0.15227,-7.47326 6.02437,4.42491 7.06044,-2.45418 -2.34671,7.09688 z"
       inkscape:transform-center-x="0.51803868"
       inkscape:transform-center-y="0.57019258" />
    <path
       sodipodi:type="spiral"
       style="fill:#000080;fill-rule:evenodd;stroke:#000000;stroke-width:0.264583"
       id="path31"
       sodipodi:cx="55.372879"
       sodipodi:cy="112.00423"
       sodipodi:expansion="1"
       sodipodi:revolution="3"
       sodipodi:radius="47.4897"
       sodipodi:argument="-17.837358"
       sodipodi:t0="0"
       d="m 55.372879,112.00423 c 1.261957,2.01913 -2.099147,2.69726 -3.355933,2.09745 -3.405813,-1.62544 -2.921805,-6.35662 -0.838979,-8.80932 3.725686,-4.3873 10.549797,-3.42719 14.262711,0.4195 5.448851,5.64517 3.961921,14.80504 -1.677975,19.7161 -7.517093,6.54567 -19.082997,4.51001 -25.169489,-2.93645 -7.659229,-9.37061 -5.06518,-23.37195 4.194928,-30.622881 11.215232,-8.78185 27.667121,-5.624488 36.076268,5.453405 9.909889,13.054916 6.186397,31.966176 -6.711882,41.529656 -14.891574,11.04141 -36.267833,6.75004 -46.983046,-7.97036 -12.175307,-16.72625 -7.3149,-40.571304 9.228836,-52.436434 18.559571,-13.310882 44.876105,-7.880635 57.889824,10.487313 14.447698,20.391901 8.447028,49.181901 -11.74579,63.343211"
       transform="translate(49.080508,37.754237)" />
  </g>
</svg>
