<svg  xmlns="http://www.w3.org/2000/svg" xmlns:bx="https://boxy-svg.com">
  <defs></defs>
  <symbol id="svgtest1" viewBox="0 0 240 200" width="240" height="200">
  <rect y="42.407" width="199" height="42.422" style="stroke: rgb(0, 0, 0); paint-order: stroke markers; fill-rule: evenodd; fill: rgb(78, 179, 217);" x="8"></rect>
  <text style="fill: color(display-p3 0.89 0.04 0.04); font-family: Arial, sans-serif; font-size: 16px; paint-order: fill; white-space: pre;" transform="matrix(1.08904, 0, 0, 1, -18.470802, -9)"><tspan x="26" y="60.277" dy="1em">​</tspan><tspan>Welcome to Project SVG</tspan></text>
  <ellipse style="stroke: rgb(0, 0, 0); fill: rgb(210, 31, 59);" cx="25.499" cy="105.017" rx="15.943" ry="17.542"></ellipse>
  <ellipse style="stroke: rgb(0, 0, 0); fill: rgb(210, 31, 59);" cx="105.03" cy="105.699" rx="15.943" ry="17.542"></ellipse>
  <ellipse style="stroke: rgb(0, 0, 0); fill: rgb(210, 31, 59);" cx="187.695" cy="103.907" rx="15.943" ry="17.542"></ellipse>
  <path style="stroke: rgb(0, 0, 0); fill: rgb(217, 148, 52);" transform="matrix(0.794913, 0, 0, 0.907519, -38.885506, -144.773209)" d="M 127.047 256.258 L 132.742 256.258 L 133.944 264.955 A 15.128 15.128 0 0 1 137.338 266.361 L 144.338 261.061 L 148.365 265.088 L 143.064 272.088 A 15.128 15.128 0 0 1 144.47 275.482 L 153.168 276.684 L 153.168 282.379 L 144.47 283.58 A 15.128 15.128 0 0 1 143.064 286.975 L 148.365 293.975 L 144.338 298.001 L 137.338 292.701 A 15.128 15.128 0 0 1 133.944 294.107 L 132.742 302.805 L 127.047 302.805 L 125.845 294.107 A 15.128 15.128 0 0 1 122.451 292.701 L 115.451 298.001 L 111.424 293.975 L 116.725 286.975 A 15.128 15.128 0 0 1 115.319 283.58 L 106.621 282.379 L 106.621 276.684 L 115.319 275.482 A 15.128 15.128 0 0 1 116.725 272.088 L 111.424 265.088 L 115.451 261.061 L 122.451 266.361 A 15.128 15.128 0 0 1 125.845 264.955 Z M 129.895 272.549 A 6.982 6.982 0 0 0 129.895 286.513 A 6.982 6.982 0 0 0 129.895 272.549" bx:shape="cog 129.895 279.531 6.982 15.128 23.273 0.38 8 1@e9823716"></path>
  <path style="stroke: rgb(0, 0, 0); fill: rgb(217, 148, 52);" transform="matrix(0.794913, 0, 0, 0.907519, 43.21122, -146.025253)" d="M 127.047 256.258 L 132.742 256.258 L 133.944 264.955 A 15.128 15.128 0 0 1 137.338 266.361 L 144.338 261.061 L 148.365 265.088 L 143.064 272.088 A 15.128 15.128 0 0 1 144.47 275.482 L 153.168 276.684 L 153.168 282.379 L 144.47 283.58 A 15.128 15.128 0 0 1 143.064 286.975 L 148.365 293.975 L 144.338 298.001 L 137.338 292.701 A 15.128 15.128 0 0 1 133.944 294.107 L 132.742 302.805 L 127.047 302.805 L 125.845 294.107 A 15.128 15.128 0 0 1 122.451 292.701 L 115.451 298.001 L 111.424 293.975 L 116.725 286.975 A 15.128 15.128 0 0 1 115.319 283.58 L 106.621 282.379 L 106.621 276.684 L 115.319 275.482 A 15.128 15.128 0 0 1 116.725 272.088 L 111.424 265.088 L 115.451 261.061 L 122.451 266.361 A 15.128 15.128 0 0 1 125.845 264.955 Z M 129.895 272.549 A 6.982 6.982 0 0 0 129.895 286.513 A 6.982 6.982 0 0 0 129.895 272.549" bx:shape="cog 129.895 279.531 6.982 15.128 23.273 0.38 8 1@e9823716"></path>
</symbol>
</svg>